<svg id="Layer_1" xmlns="http://www.w3.org/2000/svg" viewBox="0 0 147.54 67.9"><style>.st0{fill:#2efbfb}</style><path class="st0" d="M13.2 1.4c3.25 0 5.92.94 8.17 2.89 2.19 1.89 3.25 4.44 3.25 7.8v2.45H5.49l.26 1.62c.28 1.79 1.22 3.27 2.78 4.39 1.49 1.07 3.19 1.61 5.06 1.61 2.39 0 4.45-.67 6.17-1.99l2.13 2.31c-2.42 1.92-5.14 2.85-8.28 2.85-3.6 0-6.47-1.06-8.79-3.26-2.3-2.17-3.41-5.03-3.41-8.74 0-3.7 1.14-6.55 3.47-8.7C7.25 2.46 9.97 1.4 13.2 1.4M5.73 12.2h14.53l-.16-1.55c-.2-1.91-.95-3.42-2.23-4.5-1.25-1.05-2.78-1.58-4.54-1.58-1.73 0-3.33.53-4.76 1.57-1.51 1.1-2.39 2.6-2.64 4.47l-.2 1.59M13.2 0C9.64 0 6.55 1.2 3.93 3.61 1.31 6.02 0 9.27 0 13.35s1.29 7.33 3.86 9.76c2.57 2.43 5.82 3.64 9.76 3.64 3.94 0 7.36-1.38 10.29-4.14l-4.05-4.39c-1.64 1.7-3.73 2.55-6.26 2.55-1.57 0-2.99-.45-4.24-1.35-1.25-.9-1.99-2.06-2.22-3.47h18.89V12.1c0-3.76-1.24-6.71-3.73-8.87C19.8 1.08 16.77 0 13.2 0zM7.32 10.79c.2-1.47.89-2.65 2.08-3.51 1.19-.87 2.5-1.3 3.93-1.3 1.43 0 2.64.42 3.64 1.25 1 .84 1.57 2.02 1.74 3.57H7.32v-.01zm55.77-9l-9.15 23.17h-5.51L39.27 1.79h4.5l6.11 15.45 1.31 3.3 1.31-3.3 6.11-15.45h4.48m2.06-1.4h-7.52l-6.46 16.34L44.72.39H37.2l10.26 25.97h7.42L65.15.39z"/><path d="M61.18 20.58c-3.94 0-7.2 1.29-9.81 3.88-2.6 2.59-3.9 5.76-3.9 9.52s1.3 6.92 3.9 9.49c2.6 2.57 5.87 3.86 9.81 3.86 3.93 0 7.2-1.28 9.81-3.86 2.6-2.57 3.9-5.73 3.9-9.49s-1.3-6.93-3.9-9.52c-2.6-2.59-5.87-3.88-9.81-3.88zm4.63 18.57c-1.2 1.33-2.75 2-4.63 2s-3.42-.67-4.63-2c-1.2-1.33-1.81-3.06-1.81-5.18 0-2.12.6-3.86 1.81-5.2 1.2-1.35 2.75-2.02 4.63-2.02s3.42.67 4.63 2.02c1.2 1.35 1.81 3.08 1.81 5.2s-.61 3.85-1.81 5.18zm18.65-23.97v5.78h5.42v25.98h7.23V15.18h-7.23z" fill="#fff"/><path class="st0" d="M107.7 42.94l-9.15 23.17h-5.51l-9.15-23.17h4.5l6.11 15.45 1.31 3.3 1.31-3.3 6.11-15.45h4.47m2.06-1.4h-7.52l-6.46 16.34-6.46-16.34H81.8l10.26 25.97h7.42l10.28-25.97zm24.96 1.02c3.25 0 5.92.94 8.17 2.89 2.19 1.89 3.25 4.44 3.25 7.8v2.45h-19.13l.26 1.62c.28 1.79 1.22 3.27 2.78 4.39 1.49 1.07 3.19 1.61 5.06 1.61 2.39 0 4.45-.67 6.17-1.99l2.13 2.31c-2.42 1.92-5.14 2.85-8.28 2.85-3.6 0-6.47-1.06-8.79-3.26-2.3-2.17-3.41-5.03-3.41-8.74 0-3.7 1.14-6.55 3.47-8.7 2.37-2.17 5.09-3.23 8.32-3.23m-7.48 10.79h14.53l-.16-1.55c-.2-1.91-.95-3.42-2.23-4.5-1.25-1.05-2.78-1.58-4.54-1.58-1.73 0-3.33.53-4.75 1.57-1.51 1.1-2.39 2.6-2.64 4.47l-.21 1.59m7.48-12.2c-3.57 0-6.66 1.2-9.28 3.61-2.62 2.41-3.93 5.65-3.93 9.73s1.28 7.33 3.86 9.76c2.57 2.43 5.82 3.64 9.76 3.64 3.94 0 7.36-1.38 10.29-4.14l-4.05-4.39c-1.64 1.7-3.73 2.55-6.26 2.55-1.57 0-2.99-.45-4.24-1.35-1.25-.9-1.99-2.06-2.22-3.47h18.89v-3.86c0-3.76-1.24-6.71-3.73-8.87-2.49-2.13-5.52-3.21-9.09-3.21zm-5.88 10.8c.19-1.48.88-2.65 2.07-3.52 1.19-.87 2.5-1.3 3.93-1.3 1.43 0 2.64.42 3.64 1.25 1 .84 1.57 2.02 1.74 3.57h-11.38z"/></svg>